<svg width="146" height="19" viewBox="0 0 146 19" fill="none" xmlns="http://www.w3.org/2000/svg">
<g clip-path="url(#clip0_9326_57923)">
<path fill-rule="evenodd" clip-rule="evenodd" d="M100.341 0C106.985 0 113.63 0 120.274 0C120.274 1.41015 120.274 2.82029 120.274 4.23044C115.432 4.23044 110.588 4.23044 105.746 4.23044C105.746 5.28805 105.746 6.34566 105.746 7.40327C109.8 7.40327 113.855 7.40327 117.909 7.40327C117.909 8.69567 117.909 9.98877 117.909 11.2812C113.946 11.2523 109.156 11.2812 105.746 11.2812C105.746 12.1036 105.746 13.6315 105.746 14.454C108.492 14.454 116.594 14.4706 120.274 14.454C120.274 15.8642 120.274 17.2743 120.274 18.6844C113.63 18.6844 106.985 18.6844 100.341 18.6844C100.341 12.4569 100.341 6.22756 100.341 0Z" fill="#172843"/>
<path d="M46.623 14.454C42.9428 14.4706 32.0955 14.454 32.0955 14.454V11.2812H44.258V7.40327H32.0955C32.0955 7.40327 32.0824 5.57925 32.0955 4.23044C37.4869 4.23044 46.623 4.23044 46.623 4.23044V0H26.69V18.6844H46.623C46.6368 17.2546 46.623 15.3886 46.623 14.454Z" fill="#EA6D24"/>
<path d="M47.2987 0L55.407 9.51849L47.2987 18.6844H54.0556C54.0556 18.6844 60.044 11.7162 61.8261 9.51849L53.7178 0H47.2987Z" fill="#EA6D24"/>
<path d="M77.0293 0C77.0053 2.06939 77.0293 4.23044 77.0293 4.23044H85.1376C85.1376 4.23044 85.1376 14.1018 85.1376 18.6844C86.9394 18.6844 88.4036 18.6844 90.2053 18.6844C90.1878 14.0154 90.2053 4.23044 90.2053 4.23044C90.2053 4.23044 95.7237 4.23044 98.3137 4.23044C98.3137 2.7029 98.3137 1.52754 98.3137 0C92.5287 0 83.3707 0 77.0293 0Z" fill="#172843"/>
<path d="M69.9345 0L61.8261 9.51849L69.5966 18.6844H76.0157L68.2452 9.51849C68.2452 9.51849 72.7166 4.33726 76.3536 0C72.5626 0 69.9345 0 69.9345 0Z" fill="#172843"/>
<path fill-rule="evenodd" clip-rule="evenodd" d="M23.9872 5.28805C23.924 1.73519 21.1942 0 17.5681 0C13.942 0 0 0 0 0V18.6844C0 18.6844 15.9869 18.6844 18.9195 18.6844C21.852 18.6844 23.9872 16.0989 23.9872 14.454C23.9872 12.8091 24.0223 7.26155 23.9872 5.28805ZM18.9195 12.3388C18.9195 13.2927 17.8924 14.1015 17.2302 14.1015C16.568 14.1015 9.4594 14.1015 5.40556 14.1015C5.40556 10.8116 5.40556 7.52031 5.40556 4.23044C9.34655 4.23044 16.7853 4.23044 17.2302 4.23044C17.6752 4.23044 18.9195 4.8576 18.9195 5.99312C18.9195 6.78281 18.9195 11.3848 18.9195 12.3388Z" fill="#EA6D24"/>
<path fill-rule="evenodd" clip-rule="evenodd" d="M145.274 15.1591C145.274 13.5755 143.87 12.2873 142.281 11.2963C143.669 10.8743 145.274 9.32495 145.274 7.75581C145.274 6.18667 145.274 5.01483 145.274 4.23044C145.274 1.20462 142.02 0 140.991 0C136.149 0 127.819 0 122.977 0C122.977 6.22756 122.977 12.4569 122.977 18.6844C124.778 18.6844 126.58 18.6844 128.382 18.6844C128.367 17.0748 128.382 15.195 128.382 14.1015C131.648 14.1015 137.255 14.1015 138.518 14.1015C139.78 14.1015 140.207 15.3491 140.207 15.8642C140.207 16.3792 140.207 17.5094 140.207 18.6844C142.009 18.6844 143.473 18.6844 145.274 18.6844C145.3 17.6705 145.274 16.0552 145.274 15.1591ZM138.855 9.16595C138.399 9.16595 128.382 9.16595 128.382 9.16595V4.58298C128.382 4.58298 138.437 4.58298 138.855 4.58298C139.274 4.58298 140.207 4.61365 140.207 6.6982C140.207 8.78275 139.312 9.16595 138.855 9.16595Z" fill="#172843"/>
</g>
<defs>
<clipPath id="clip0_9326_57923">
<rect width="145.667" height="19" fill="white"/>
</clipPath>
</defs>
</svg>
